<svg width="128" height="128" viewBox="0 0 128 128" fill="none" xmlns="http://www.w3.org/2000/svg">
<path d="M52.61 21.5L48.47 6.03999M32.89 32.89L21.57 21.57M95.11 32.89L106.43 21.57M75.39 21.5L79.53 6.03999" stroke="#F0F0F0" stroke-width="4" stroke-miterlimit="10" stroke-linecap="round"/>
<path d="M37.65 113.45C44.25 113.21 49.54 105.61 50.04 104.07C50.56 102.89 51.02 101.82 51.43 100.87C52.21 99.1 53.07 97.1 53.94 95.04L54.48 93.77L54.47 93.78C57.65 86.25 60.84 78.4 60.84 78.4C61.46 77.07 60.55 75.56 59.03 75.36C54.63 74.79 51.25 76.79 49.42 80.6L45.7 89.34C45.35 90.38 43.74 90.34 43.49 89.27C42.56 85.28 43 77.6 43 77.6C42.81 74.1 44.09 53.31 44.28 52.01C44.65 49.54 43.54 47.09 41.27 46.82C38.95 46.54 37.03 47.77 36.66 50.53C36.55 51.33 34.31 72.81 34.31 72.81C34.32 74.03 33.01 74.26 32.92 73.01C32.72 70.22 32.06 46.9 32.1 45.7C32.18 43.2 30.8 40.88 28.51 40.84C26.17 40.8 24.4 42.21 24.35 44.99C24.34 45.87 24.06 64.83 24.02 72.28C24.02 72.78 23.61 73.18 23.08 73.22H23.06C22.56 73.25 22.12 72.91 22.07 72.44C21.22 65.55 20.05 50.62 20.02 49.53C19.95 47.03 18.44 44.79 16.15 44.87C13.81 44.95 12.13 46.46 12.25 49.23C12.29 50.07 13.05 65.75 13.47 73.36C13.5 73.93 13.09 74.42 12.5 74.55C12.49 74.55 12.48 74.55 12.48 74.56C11.79 74.72 11.1 74.31 10.94 73.66C9.55 68.07 8.01 61.1 7.86 60.25C7.45 57.78 5.64 55.74 3.38 56.1C1.07 56.47 -0.389997 58.17 0.110003 60.9C0.270003 61.79 2.3 74.62 3.79 80.85C4.11 82.18 4.33 83.54 4.46 84.9C5 90.66 5.38 93.33 5.38 93.33C6.44 108.73 13.96 113.07 25.15 113.59L37.65 113.45Z" fill="#FAC036"/>
<path d="M40.92 128C40.92 128 40.38 116.35 43.68 111.26C42.56 111.26 13.17 108.81 11.85 108.81C14.09 109.45 12.86 127.99 12.86 127.99H40.92V128Z" fill="#FAC036"/>
<path d="M102.86 113.58C114.05 113.07 121.58 108.72 122.63 93.32C122.63 93.32 123.01 90.65 123.55 84.89C123.68 83.53 123.9 82.17 124.22 80.84C125.71 74.61 127.74 61.78 127.9 60.89C128.4 58.15 126.94 56.45 124.63 56.09C122.37 55.73 120.56 57.77 120.15 60.24C120.01 61.09 118.47 68.06 117.07 73.65C116.91 74.3 116.22 74.71 115.53 74.55C115.52 74.55 115.51 74.55 115.51 74.54C114.92 74.41 114.51 73.91 114.54 73.35C114.96 65.74 115.72 50.06 115.76 49.22C115.88 46.44 114.2 44.94 111.86 44.86C109.57 44.78 108.05 47.02 107.99 49.52C107.96 50.61 106.79 65.54 105.94 72.43C105.88 72.9 105.45 73.24 104.95 73.21H104.93C104.4 73.18 103.99 72.77 103.99 72.27C103.95 64.82 103.68 45.87 103.66 44.98C103.61 42.2 101.85 40.79 99.5 40.83C97.21 40.87 95.83 43.19 95.91 45.69C95.95 46.88 95.3 70.2 95.09 73C95 74.25 93.68 74.02 93.7 72.8C93.7 72.8 91.45 51.32 91.35 50.52C90.99 47.76 89.07 46.54 86.74 46.81C84.46 47.08 83.36 49.53 83.73 52C83.91 53.3 85.19 74.1 85 77.6C85 77.6 85.44 85.28 84.51 89.27C84.26 90.34 82.65 90.38 82.3 89.34L78.58 80.6C76.75 76.79 73.37 74.79 68.97 75.36C67.44 75.56 66.54 77.07 67.16 78.4C67.16 78.4 70.35 86.25 73.53 93.78L73.52 93.77L74.06 95.04C74.93 97.1 75.79 99.1 76.57 100.87C76.98 101.83 77.45 102.89 77.96 104.07C78.46 105.62 83.75 113.21 90.35 113.45L102.86 113.58Z" fill="#FAC036"/>
<path d="M87.08 128C87.08 128 87.62 116.35 84.32 111.26C85.44 111.26 114.83 108.81 116.15 108.81C113.91 109.45 115.14 127.99 115.14 127.99H87.08V128Z" fill="#FAC036"/>
</svg>
